<?xml version="1.0" standalone="no"?>
<!DOCTYPE svg PUBLIC "-//W3C//DTD SVG 20010904//EN"
 "http://www.w3.org/TR/2001/REC-SVG-20010904/DTD/svg10.dtd">
<svg version="1.0" xmlns="http://www.w3.org/2000/svg"
 width="1280.000000pt" height="1280.000000pt" viewBox="0 0 1280.000000 1280.000000"
 preserveAspectRatio="xMidYMid meet">
<metadata>
Created by potrace 1.15, written by Peter Selinger 2001-2017
</metadata>
<g transform="translate(0.000000,1280.000000) scale(0.100000,-0.100000)"
fill="#000000" stroke="none">
<path d="M6100 12794 c-25 -2 -112 -8 -195 -14 -1720 -125 -3349 -977 -4456
-2330 -1097 -1340 -1600 -3045 -1408 -4765 233 -2086 1486 -3930 3347 -4929
1324 -711 2863 -929 4342 -615 1233 261 2375 893 3259 1805 1404 1447 2041
3442 1735 5434 -341 2223 -1850 4118 -3949 4962 -578 233 -1166 373 -1815 434
-153 14 -753 27 -860 18z m800 -989 c337 -32 678 -95 994 -185 624 -177 1242
-483 1761 -873 1035 -778 1755 -1889 2039 -3147 220 -979 166 -2006 -157
-2955 -247 -726 -652 -1401 -1170 -1950 -473 -502 -963 -866 -1567 -1164 -471
-233 -960 -392 -1480 -480 -801 -136 -1616 -94 -2400 125 -817 229 -1604 672
-2220 1252 -509 479 -884 986 -1181 1596 -464 956 -636 2003 -503 3066 155
1240 749 2407 1664 3265 948 890 2157 1402 3470 1469 148 7 588 -4 750 -19z"/>
<path d="M9193 9046 c-23 -7 -62 -25 -85 -39 -24 -14 -803 -787 -1733 -1716
l-1690 -1691 -980 979 c-770 769 -991 984 -1030 1004 -72 36 -152 49 -222 36
-111 -21 -141 -44 -411 -317 -300 -303 -307 -314 -307 -462 0 -83 3 -102 27
-150 23 -46 259 -286 1475 -1503 l1448 -1447 2166 2167 c2439 2441 2214 2200
2214 2373 0 145 -12 163 -318 468 -210 209 -262 255 -310 277 -70 32 -181 42
-244 21z"/>
</g>
</svg>
